<svg width="14" height="18" viewBox="0 0 14 18" fill="none" xmlns="http://www.w3.org/2000/svg">
<path d="M7.18963 4.53142C7.96424 4.53142 8.93522 4.00435 9.51344 3.30158C10.0371 2.6647 10.419 1.77526 10.419 0.885814C10.419 0.765026 10.4081 0.644237 10.3862 0.54541C9.52435 0.578352 8.48791 1.12739 7.86605 1.8631C7.3751 2.42312 6.92779 3.30158 6.92779 4.202C6.92779 4.33377 6.94961 4.46554 6.96052 4.50946C7.01507 4.52044 7.10235 4.53142 7.18963 4.53142ZM4.46215 17.8181C5.52042 17.8181 5.98954 17.1044 7.30964 17.1044C8.65156 17.1044 8.94613 17.7962 10.1244 17.7962C11.2808 17.7962 12.0555 16.7201 12.7864 15.6659C13.6047 14.458 13.9429 13.2721 13.9647 13.2172C13.8883 13.1952 11.6736 12.2838 11.6736 9.72532C11.6736 7.50721 13.4192 6.50796 13.5174 6.43109C12.3609 4.76202 10.6044 4.7181 10.1244 4.7181C8.82612 4.7181 7.76786 5.50871 7.10235 5.50871C6.3823 5.50871 5.43314 4.76202 4.30942 4.76202C2.17107 4.76202 0 6.5409 0 9.90101C0 11.9874 0.807333 14.1945 1.80014 15.622C2.65111 16.8299 3.39298 17.8181 4.46215 17.8181Z" fill="black"/>
</svg>
